<svg width="33" height="33" viewBox="0 0 33 33" fill="none" xmlns="http://www.w3.org/2000/svg">
<path d="M6.5 30.5H18.5C19.0303 30.4995 19.5387 30.2886 19.9136 29.9136C20.2886 29.5387 20.4995 29.0303 20.5 28.5V25.5H18.5V28.5H6.5V4.5H18.5V7.5H20.5V4.5C20.4995 3.96973 20.2886 3.46133 19.9136 3.08637C19.5387 2.71141 19.0303 2.50053 18.5 2.5H6.5C5.96973 2.50053 5.46133 2.71141 5.08637 3.08637C4.71141 3.46133 4.50053 3.96973 4.5 4.5V28.5C4.50053 29.0303 4.71141 29.5387 5.08637 29.9136C5.46133 30.2886 5.96973 30.4995 6.5 30.5Z" fill="#00994E"/>
<path d="M21.086 21.086L24.672 17.5H10.5V15.5H24.672L21.086 11.914L22.5 10.5L28.5 16.5L22.5 22.5L21.086 21.086Z" fill="#00994E"/>
</svg>
